<?xml version="1.0" encoding="utf-8"?>
<!-- Generator: Adobe Illustrator 15.0.0, SVG Export Plug-In  -->
<!DOCTYPE svg PUBLIC "-//W3C//DTD SVG 1.1//EN" "http://www.w3.org/Graphics/SVG/1.1/DTD/svg11.dtd" [
	<!ENTITY ns_flows "http://ns.adobe.com/Flows/1.0/">
]>
<svg version="1.1"
	 xmlns="http://www.w3.org/2000/svg" xmlns:xlink="http://www.w3.org/1999/xlink" xmlns:a="http://ns.adobe.com/AdobeSVGViewerExtensions/3.0/"
	 x="0px" y="0px" width="740px" height="209px" viewBox="-3.984 0.145 740 209"
	 overflow="visible" enable-background="new -3.984 0.145 740 209" xml:space="preserve">
<defs>
</defs>
<path fill="#231F20" d="M0,57.386c2.213-0.43,4.316-0.645,6.315-0.645c2.137,0,4.35,0.215,6.635,0.645l29.747,49.01v-49.01
	c2.566-0.43,5.033-0.645,7.386-0.645c2.211,0,4.351,0.215,6.421,0.645v76.94c-2.283,0.432-4.351,0.645-6.206,0.645
	c-2.001,0-4.176-0.213-6.527-0.645L13.806,85.423v48.903c-2.283,0.432-4.604,0.645-6.956,0.645c-2.355,0-4.637-0.213-6.85-0.645
	V57.386z"/>
<path fill="#231F20" d="M78.228,111.316c0.284,4.281,1.78,7.389,4.495,9.311c2.711,1.932,6.277,2.891,10.7,2.891
	c2.426,0,4.904-0.227,7.441-0.691c2.53-0.467,4.936-1.125,7.222-1.98c0.782,1.426,1.461,3.139,2.032,5.139
	c0.574,1.994,0.892,4.137,0.965,6.418c-5.565,2.141-11.845,3.209-18.835,3.209c-5.135,0-9.544-0.713-13.219-2.139
	c-3.673-1.426-6.67-3.406-8.988-5.938c-2.319-2.533-4.031-5.553-5.134-9.045c-1.11-3.49-1.661-7.314-1.661-11.449
	c0-4.069,0.572-7.881,1.711-11.453c1.142-3.568,2.835-6.671,5.083-9.312c2.249-2.637,5.032-4.721,8.348-6.255
	c3.319-1.537,7.188-2.302,11.61-2.302c3.852,0,7.276,0.676,10.275,2.032c2.996,1.354,5.547,3.207,7.648,5.566
	c2.107,2.351,3.695,5.153,4.766,8.396c1.068,3.248,1.604,6.727,1.604,10.435c0,1.357-0.053,2.693-0.161,4.015
	c-0.105,1.32-0.232,2.373-0.375,3.152H78.228L78.228,111.316z M99.95,100.727c-0.141-3.428-1.089-6.19-2.834-8.295
	c-1.749-2.105-4.193-3.156-7.331-3.156c-3.571,0-6.281,0.999-8.135,2.994c-1.854,2-2.96,4.815-3.316,8.457H99.95L99.95,100.727z"/>
<path fill="#231F20" d="M123.922,90.559h-7.17c-0.213-0.927-0.376-1.908-0.48-2.945c-0.109-1.028-0.165-2.015-0.165-2.939
	c0-1.927,0.217-3.816,0.645-5.67h22.043v55.324c-2.566,0.432-5.066,0.645-7.487,0.645c-2.357,0-4.818-0.213-7.386-0.645V90.559
	L123.922,90.559z M121.674,69.688c-0.431-2.42-0.641-4.81-0.641-7.167c0-2.282,0.21-4.671,0.641-7.172
	c1.214-0.21,2.516-0.371,3.904-0.483c1.395-0.104,2.659-0.156,3.799-0.156c1.214,0,2.533,0.052,3.963,0.156
	c1.427,0.112,2.745,0.273,3.955,0.483c0.217,1.219,0.359,2.412,0.432,3.586c0.068,1.179,0.105,2.375,0.105,3.586
	c0,1.141-0.037,2.321-0.105,3.532c-0.073,1.215-0.215,2.426-0.432,3.635c-1.21,0.219-2.513,0.36-3.904,0.432
	c-1.389,0.072-2.691,0.108-3.906,0.108c-1.142,0-2.423-0.036-3.854-0.108C124.204,70.048,122.888,69.906,121.674,69.688z"/>
<path fill="#231F20" d="M179.462,125.125c6.492,0.141,11.273,1.588,14.339,4.332c3.069,2.746,4.602,6.648,4.602,11.719
	c0,3-0.786,5.727-2.355,8.188c-1.571,2.463-3.708,4.549-6.42,6.26c-2.712,1.713-5.922,3.031-9.632,3.961
	c-3.71,0.928-7.707,1.395-11.986,1.395c-4.28,0-7.918-0.342-10.916-1.02c-2.994-0.68-5.439-1.621-7.328-2.838
	c-1.896-1.213-3.247-2.713-4.067-4.492c-0.826-1.785-1.232-3.744-1.232-5.887c0-3.213,0.767-5.854,2.303-7.92
	c1.533-2.066,3.583-3.889,6.151-5.457c-1.641-0.998-2.94-2.229-3.904-3.693c-0.966-1.461-1.445-3.332-1.445-5.617
	c0-2.711,0.568-4.92,1.711-6.633c1.141-1.715,2.819-3.352,5.03-4.922c-2.499-1.783-4.425-3.963-5.779-6.527
	c-1.359-2.571-2.033-5.422-2.033-8.561c0-2.783,0.533-5.368,1.607-7.761c1.068-2.391,2.622-4.458,4.653-6.208
	c2.034-1.743,4.51-3.116,7.439-4.121c2.924-0.995,6.203-1.498,9.841-1.498c3.569,0,6.853,0.557,9.849,1.662
	c2.996,1.106,5.491,2.517,7.492,4.224c1.351-1.782,3.03-3.117,5.03-4.015c1.995-0.887,4.706-1.334,8.133-1.334
	c0.142,0.93,0.269,1.836,0.372,2.729c0.108,0.895,0.161,1.836,0.161,2.835c0,1.142-0.035,2.284-0.105,3.425
	c-0.073,1.141-0.215,2.317-0.428,3.529h-8.667c0.354,0.714,0.674,1.572,0.961,2.569c0.286,0.999,0.425,2.321,0.425,3.962
	c0,2.778-0.52,5.365-1.549,7.756c-1.035,2.39-2.554,4.443-4.55,6.15c-1.997,1.715-4.441,3.074-7.328,4.068
	c-2.892,1-6.155,1.5-9.796,1.5c-3.066,0-5.81-0.318-8.237-0.965c-1.214,0.787-1.962,1.627-2.251,2.514
	c-0.281,0.896-0.424,1.73-0.424,2.518c0,1.141,0.374,2.068,1.124,2.785c0.749,0.713,2.265,1.104,4.549,1.18L179.462,125.125z
	 M165.765,136.255c-1.57-0.074-2.874,0.104-3.908,0.529c-1.032,0.434-1.854,0.98-2.462,1.658c-0.605,0.682-1.033,1.434-1.279,2.248
	c-0.252,0.816-0.377,1.623-0.377,2.408c0,2.715,1.016,4.551,3.051,5.512c2.031,0.965,4.762,1.445,8.186,1.445
	c4.496,0,8.114-0.713,10.864-2.141c2.744-1.428,4.12-3.355,4.12-5.777c0-0.717-0.093-1.395-0.269-2.031
	c-0.179-0.646-0.518-1.23-1.017-1.768c-0.502-0.533-1.199-0.984-2.088-1.336c-0.893-0.359-2.084-0.537-3.585-0.537L165.765,136.255z
	 M170.154,107.041c2.995,0,5.151-0.859,6.473-2.568c1.32-1.713,1.98-4.064,1.98-7.062s-0.66-5.368-1.98-7.118
	c-1.322-1.748-3.479-2.623-6.473-2.623c-3.074,0-5.285,0.875-6.636,2.623c-1.357,1.75-2.033,4.12-2.033,7.118
	c0,2.999,0.675,5.351,2.033,7.062C164.869,106.181,167.08,107.041,170.154,107.041z"/>
<path fill="#231F20" d="M203.434,56.103c1.209-0.218,2.458-0.358,3.743-0.427c1.286-0.075,2.531-0.111,3.746-0.111
	c1.211,0,2.464,0.036,3.747,0.111c1.284,0.068,2.567,0.209,3.852,0.427v29.427c0.498-0.641,1.158-1.408,1.976-2.299
	c0.822-0.894,1.839-1.752,3.052-2.573c1.214-0.816,2.676-1.515,4.389-2.086c1.708-0.567,3.676-0.853,5.884-0.853
	c6.134,0,10.792,1.71,13.968,5.134c3.172,3.423,4.76,8.812,4.76,16.158v35.422c-1.285,0.215-2.566,0.357-3.852,0.428
	c-1.286,0.072-2.534,0.109-3.749,0.109c-1.21,0-2.456-0.037-3.741-0.109c-1.288-0.068-2.571-0.213-3.855-0.428v-31.355
	c0-3.851-0.604-6.813-1.818-8.884c-1.213-2.065-3.283-3.103-6.208-3.103c-1.213,0-2.46,0.179-3.746,0.539
	c-1.284,0.354-2.444,1.049-3.477,2.083c-1.036,1.036-1.891,2.479-2.566,4.332c-0.681,1.86-1.017,4.283-1.017,7.282v29.105
	c-1.285,0.215-2.568,0.357-3.852,0.428c-1.283,0.072-2.536,0.109-3.747,0.109c-1.215,0-2.442-0.037-3.688-0.109
	c-1.252-0.068-2.518-0.213-3.801-0.428V56.103L203.434,56.103z"/>
<path fill="#231F20" d="M260.791,56.103c2.569-0.427,5.066-0.646,7.493-0.646c2.497,0,5.025,0.22,7.595,0.646v28.251
	c1.073-1.927,2.853-3.514,5.35-4.765c2.497-1.246,5.351-1.87,8.564-1.87c3.209,0,6.188,0.571,8.933,1.71
	c2.746,1.14,5.117,2.873,7.118,5.191c1.997,2.315,3.569,5.226,4.711,8.721c1.14,3.495,1.711,7.635,1.711,12.415
	c0,4.637-0.714,8.791-2.141,12.465c-1.427,3.672-3.497,6.795-6.207,9.365c-2.712,2.57-6.03,4.549-9.953,5.938
	c-3.924,1.391-8.347,2.084-13.271,2.084c-1.569,0-3.226-0.066-4.971-0.213c-1.754-0.143-3.518-0.336-5.301-0.588
	c-1.783-0.252-3.496-0.572-5.135-0.961c-1.643-0.391-3.143-0.842-4.496-1.342V56.103L260.791,56.103z M275.879,122.339
	c0.86,0.287,1.766,0.469,2.731,0.541c0.961,0.068,1.943,0.104,2.94,0.104c4.639,0,8.276-1.354,10.914-4.068
	c2.642-2.707,3.961-6.951,3.961-12.732c0-5.134-0.819-9.04-2.46-11.717c-1.641-2.674-4.424-4.012-8.347-4.012
	c-2.854,0-5.191,0.943-7.009,2.837c-1.819,1.892-2.731,4.868-2.731,8.932L275.879,122.339L275.879,122.339z"/>
<path fill="#231F20" d="M342.231,135.609c-4.498,0-8.4-0.73-11.717-2.188c-3.321-1.465-6.067-3.5-8.242-6.104
	c-2.182-2.604-3.82-5.652-4.926-9.152c-1.105-3.494-1.657-7.275-1.657-11.342c0-4.065,0.552-7.883,1.657-11.448
	c1.105-3.568,2.744-6.654,4.926-9.257c2.175-2.605,4.921-4.658,8.242-6.154c3.316-1.499,7.219-2.246,11.717-2.246
	c4.488,0,8.414,0.748,11.77,2.246c3.35,1.496,6.135,3.549,8.348,6.154c2.207,2.604,3.854,5.688,4.92,9.257
	c1.068,3.564,1.607,7.383,1.607,11.448c0,4.066-0.539,7.848-1.607,11.342c-1.064,3.5-2.715,6.549-4.92,9.152
	c-2.213,2.604-4.998,4.639-8.348,6.104C350.645,134.876,346.719,135.609,342.231,135.609z M342.231,124.052
	c3.99,0,6.865-1.48,8.613-4.441c1.75-2.959,2.621-7.221,2.621-12.787c0-5.564-0.871-9.828-2.621-12.786
	c-1.748-2.961-4.623-4.445-8.613-4.445c-3.924,0-6.762,1.484-8.514,4.445c-1.748,2.958-2.616,7.222-2.616,12.786
	c0,5.566,0.868,9.828,2.616,12.787C335.469,122.572,338.307,124.052,342.231,124.052z"/>
<path fill="#231F20" d="M374.543,79.004c2.568-0.433,5.1-0.645,7.598-0.645c2.496,0,5.031,0.211,7.6,0.645v29.324
	c0,2.922,0.23,5.324,0.695,7.221c0.461,1.891,1.178,3.385,2.143,4.494c0.963,1.105,2.154,1.891,3.586,2.352
	c1.426,0.465,3.104,0.695,5.027,0.695c2.637,0,4.85-0.248,6.635-0.75V79.003c2.566-0.433,5.061-0.645,7.488-0.645
	c2.498,0,5.033,0.21,7.602,0.645v53.182c-2.285,0.785-5.303,1.553-9.041,2.303c-3.75,0.744-7.652,1.121-11.717,1.121
	c-3.643,0-7.139-0.287-10.488-0.852c-3.355-0.574-6.301-1.787-8.83-3.645c-2.535-1.852-4.555-4.562-6.043-8.133
	c-1.506-3.562-2.252-8.311-2.252-14.234L374.543,79.004L374.543,79.004z"/>
<path fill="#231F20" d="M431.366,79.004c1.072-0.215,2.086-0.377,3.053-0.484c0.967-0.108,2.016-0.16,3.154-0.16
	c1.072,0,2.123,0.071,3.158,0.211c1.033,0.146,2.055,0.322,3.055,0.536c0.213,0.359,0.402,0.875,0.588,1.55
	c0.174,0.679,0.332,1.396,0.479,2.146c0.141,0.748,0.27,1.498,0.371,2.246c0.113,0.746,0.201,1.371,0.27,1.874
	c1.566-2.213,3.492-4.194,5.779-5.941c2.281-1.748,5.135-2.621,8.562-2.621c0.711,0,1.531,0.035,2.457,0.106
	c0.932,0.072,1.609,0.179,2.039,0.322c0.139,0.713,0.248,1.536,0.314,2.46c0.07,0.932,0.109,1.89,0.109,2.891
	c0,1.216-0.055,2.53-0.158,3.956c-0.107,1.431-0.307,2.783-0.588,4.067c-0.787-0.144-1.664-0.213-2.629-0.213
	c-0.959,0-1.547,0-1.76,0c-1.215,0-2.566,0.122-4.068,0.376c-1.498,0.253-2.928,0.909-4.279,1.979
	c-1.354,1.071-2.479,2.673-3.369,4.816c-0.895,2.138-1.338,5.134-1.338,8.984v26.328c-1.279,0.215-2.566,0.357-3.852,0.428
	c-1.287,0.072-2.539,0.109-3.746,0.109c-1.219,0-2.445-0.037-3.691-0.109c-1.25-0.068-2.551-0.213-3.91-0.428V79.004L431.366,79.004
	z"/>
<path fill="#231F20" d="M468.821,56.103c1.217-0.218,2.463-0.358,3.74-0.427c1.287-0.075,2.533-0.111,3.752-0.111
	c1.215,0,2.461,0.036,3.742,0.111c1.281,0.068,2.568,0.209,3.855,0.427v29.427c0.496-0.641,1.158-1.408,1.975-2.299
	c0.818-0.894,1.838-1.752,3.055-2.573c1.207-0.816,2.674-1.515,4.387-2.086c1.713-0.567,3.672-0.853,5.895-0.853
	c6.129,0,10.781,1.71,13.959,5.134c3.172,3.423,4.764,8.812,4.764,16.158v35.422c-1.279,0.215-2.566,0.357-3.855,0.428
	c-1.283,0.072-2.529,0.109-3.742,0.109s-2.463-0.037-3.746-0.109c-1.283-0.068-2.568-0.213-3.852-0.428v-31.355
	c0-3.851-0.609-6.813-1.82-8.884c-1.215-2.065-3.279-3.103-6.209-3.103c-1.213,0-2.461,0.179-3.742,0.539
	c-1.287,0.354-2.443,1.049-3.48,2.083c-1.031,1.036-1.891,2.479-2.568,4.332c-0.674,1.86-1.012,4.283-1.012,7.282v29.105
	c-1.287,0.215-2.574,0.357-3.855,0.428c-1.281,0.072-2.527,0.109-3.742,0.109c-1.219,0-2.449-0.037-3.695-0.109
	c-1.242-0.068-2.512-0.213-3.797-0.428V56.103H468.821z"/>
<path fill="#231F20" d="M672.995,56.103c1.287-0.218,2.555-0.358,3.801-0.427c1.248-0.075,2.48-0.111,3.693-0.111
	s2.465,0.036,3.75,0.111c1.289,0.068,2.564,0.209,3.848,0.427v76.403c-3.352,1-6.762,1.768-10.221,2.303
	c-3.461,0.533-7.652,0.801-12.568,0.801c-3.785,0-7.404-0.514-10.863-1.551c-3.461-1.033-6.514-2.674-9.15-4.918
	c-2.641-2.252-4.725-5.158-6.264-8.725c-1.533-3.566-2.299-7.918-2.299-13.057c0-4.065,0.662-7.9,1.982-11.503
	c1.314-3.602,3.209-6.723,5.67-9.365c2.463-2.639,5.438-4.726,8.936-6.257c3.49-1.535,7.387-2.303,11.668-2.303
	c1.281,0,2.617,0.051,4.016,0.159c1.385,0.11,2.727,0.341,4.004,0.698L672.995,56.103L672.995,56.103z M672.995,90.453
	c-1.426-0.354-2.584-0.593-3.477-0.695c-0.891-0.108-2.012-0.164-3.367-0.164c-2.357,0-4.404,0.484-6.154,1.448
	c-1.752,0.965-3.197,2.249-4.336,3.854c-1.143,1.601-1.98,3.492-2.51,5.667c-0.539,2.181-0.807,4.445-0.807,6.796
	c0,2.926,0.357,5.404,1.068,7.441c0.717,2.029,1.697,3.652,2.938,4.865c1.252,1.217,2.736,2.084,4.447,2.621
	c1.715,0.537,3.566,0.803,5.562,0.803c1.217,0,2.318-0.053,3.316-0.156c1.002-0.107,2.104-0.342,3.312-0.697V90.453H672.995z"/>
<path fill="#231F20" d="M708.102,110.248c-3.992-1.141-7.115-2.834-9.361-5.083c-2.246-2.246-3.371-5.619-3.371-10.111
	c0-5.422,1.938-9.669,5.83-12.732c3.887-3.07,9.188-4.603,15.891-4.603c2.785,0,5.527,0.248,8.24,0.748
	c2.715,0.499,5.457,1.249,8.24,2.249c-0.145,1.854-0.506,3.78-1.068,5.775c-0.57,2-1.248,3.748-2.035,5.249
	c-1.715-0.717-3.604-1.345-5.672-1.879c-2.064-0.531-4.248-0.8-6.529-0.8c-2.422,0-4.314,0.377-5.672,1.124
	c-1.35,0.747-2.029,1.945-2.029,3.585c0,1.569,0.48,2.675,1.439,3.316c0.971,0.644,2.34,1.252,4.123,1.82l6.105,1.821
	c1.992,0.57,3.795,1.269,5.396,2.085c1.609,0.82,2.98,1.836,4.119,3.051c1.143,1.215,2.035,2.711,2.672,4.492
	c0.648,1.785,0.969,3.961,0.969,6.529c0,2.639-0.557,5.098-1.66,7.385c-1.104,2.283-2.707,4.264-4.809,5.936
	c-2.107,1.68-4.66,3-7.656,3.967c-2.998,0.961-6.387,1.438-10.166,1.438c-1.713,0-3.283-0.051-4.709-0.158
	c-1.428-0.107-2.799-0.285-4.119-0.535c-1.322-0.25-2.621-0.553-3.906-0.908c-1.281-0.355-2.68-0.82-4.172-1.393
	c0.141-1.926,0.48-3.865,1.02-5.83c0.529-1.959,1.23-3.871,2.082-5.727c2.355,0.926,4.582,1.623,6.693,2.084
	c2.1,0.465,4.293,0.697,6.574,0.697c0.998,0,2.094-0.09,3.266-0.268c1.176-0.178,2.268-0.5,3.266-0.967
	c0.996-0.461,1.836-1.066,2.518-1.816c0.676-0.748,1.014-1.732,1.014-2.941c0-1.711-0.52-2.943-1.551-3.689
	c-1.033-0.752-2.48-1.412-4.332-1.986L708.102,110.248z"/>
<path fill="#929497" d="M5.948,177.445H0.292l-0.291-1.016l12.469-13.916h0.579v9.209h9.424c0.192,0.822,0.293,1.738,0.293,2.75
	c0,0.537-0.027,1.041-0.074,1.52c-0.049,0.49-0.123,0.967-0.219,1.451h-9.424v16.967c0,2.025,0.084,3.648,0.255,4.855
	c0.17,1.209,0.457,2.139,0.87,2.791c0.41,0.654,0.965,1.09,1.668,1.303c0.697,0.221,1.582,0.326,2.646,0.326
	c0.821,0,1.595-0.057,2.317-0.184c0.727-0.113,1.378-0.248,1.961-0.396c0.334,0.971,0.542,1.955,0.614,2.975
	c0.072,1.018,0.109,1.906,0.109,2.684c-0.966,0.244-1.981,0.42-3.045,0.541c-1.064,0.123-2.198,0.182-3.405,0.182
	c-3.483,0-6.197-0.844-8.156-2.533s-2.934-4.498-2.934-8.414L5.948,177.445L5.948,177.445z"/>
<path fill="#929497" d="M30.449,155.769c0.528-0.094,1.121-0.162,1.776-0.217c0.649-0.045,1.244-0.072,1.773-0.072
	c0.532,0,1.136,0.027,1.813,0.072c0.678,0.055,1.278,0.123,1.812,0.217v21.605c0.435-0.68,0.98-1.4,1.632-2.178
	c0.652-0.77,1.45-1.484,2.393-2.137c0.944-0.652,2.028-1.186,3.261-1.594c1.232-0.414,2.6-0.617,4.098-0.617
	c4.25,0,7.404,1.217,9.459,3.658c2.055,2.443,3.083,6.053,3.083,10.84v23.561c-0.536,0.102-1.126,0.164-1.778,0.219
	c-0.653,0.047-1.244,0.068-1.777,0.068c-0.532,0-1.124-0.021-1.778-0.068c-0.647-0.055-1.244-0.117-1.776-0.219v-21.602
	c0-3.438-0.565-5.957-1.703-7.578c-1.135-1.619-2.862-2.426-5.182-2.426c-1.307,0-2.564,0.229-3.77,0.688
	c-1.21,0.457-2.274,1.186-3.19,2.176c-0.918,0.988-1.641,2.277-2.177,3.881c-0.527,1.588-0.797,3.523-0.797,5.801v19.061
	c-0.533,0.102-1.133,0.164-1.812,0.221c-0.677,0.047-1.281,0.066-1.813,0.066c-0.485,0-1.061-0.02-1.737-0.066
	c-0.678-0.057-1.283-0.119-1.812-0.221v-53.139H30.449L30.449,155.769z"/>
<path fill="#929497" d="M92.066,184.408c0-2.854-0.725-4.836-2.175-5.941c-1.452-1.113-3.555-1.668-6.306-1.668
	c-1.693,0-3.278,0.133-4.751,0.395c-1.473,0.27-2.909,0.615-4.31,1.051c-0.922-1.59-1.378-3.5-1.378-5.723
	c1.642-0.529,3.456-0.945,5.436-1.23c1.981-0.289,3.889-0.438,5.728-0.438c4.832,0,8.505,1.1,11.017,3.297
	c2.515,2.197,3.771,5.717,3.771,10.551v23.271c-1.693,0.383-3.746,0.781-6.16,1.191c-2.417,0.41-4.884,0.613-7.396,0.613
	c-2.368,0-4.508-0.213-6.415-0.646c-1.911-0.438-3.529-1.141-4.858-2.105c-1.328-0.969-2.357-2.197-3.083-3.697
	c-0.721-1.5-1.083-3.307-1.083-5.434c0-2.08,0.418-3.906,1.268-5.475c0.844-1.572,1.991-2.877,3.442-3.916
	c1.449-1.039,3.117-1.816,5.002-2.32c1.886-0.508,3.867-0.758,5.944-0.758c1.544,0,2.814,0.035,3.805,0.104
	c0.991,0.074,1.824,0.158,2.503,0.256L92.066,184.408L92.066,184.408z M92.066,191.443c-0.725-0.104-1.646-0.195-2.757-0.293
	c-1.111-0.1-2.056-0.143-2.825-0.143c-2.997,0-5.283,0.553-6.851,1.662c-1.574,1.111-2.36,2.807-2.36,5.078
	c0,1.449,0.266,2.584,0.798,3.404c0.536,0.818,1.197,1.449,1.997,1.885c0.797,0.434,1.677,0.701,2.645,0.795
	c0.966,0.104,1.883,0.15,2.752,0.15c1.111,0,2.261-0.062,3.443-0.188c1.185-0.117,2.239-0.299,3.158-0.541V191.443z"/>
<path fill="#929497" d="M111.273,177.445h-5.655l-0.29-1.016l12.471-13.916h0.581v9.209h9.425c0.192,0.822,0.286,1.738,0.286,2.75
	c0,0.537-0.023,1.041-0.07,1.52c-0.051,0.49-0.124,0.967-0.215,1.451h-9.425v16.967c0,2.025,0.084,3.648,0.251,4.855
	c0.169,1.209,0.461,2.139,0.871,2.791c0.41,0.654,0.968,1.09,1.669,1.303c0.7,0.221,1.579,0.326,2.642,0.326
	c0.825,0,1.597-0.057,2.322-0.184c0.725-0.113,1.377-0.248,1.955-0.396c0.34,0.971,0.546,1.955,0.62,2.975
	c0.073,1.018,0.107,1.906,0.107,2.684c-0.966,0.244-1.986,0.42-3.042,0.541c-1.067,0.123-2.2,0.182-3.411,0.182
	c-3.48,0-6.196-0.844-8.156-2.533c-1.956-1.689-2.937-4.498-2.937-8.414L111.273,177.445L111.273,177.445z"/>
<path fill="#62BA46" d="M148.825,171.722c0.681-0.1,1.354-0.168,2.029-0.217c0.681-0.051,1.282-0.074,1.815-0.074
	c0.677,0,1.366,0.023,2.067,0.074c0.698,0.049,1.313,0.117,1.845,0.217l7.249,30.371l8.192-30.371
	c0.535-0.1,1.114-0.168,1.742-0.217c0.626-0.051,1.28-0.074,1.957-0.074c0.772,0.047,1.437,0.088,1.991,0.107
	c0.556,0.021,1.103,0.084,1.632,0.184l8.125,29.863l7.247-29.863c0.532-0.1,1.06-0.168,1.592-0.217
	c0.532-0.051,1.11-0.074,1.74-0.074c0.532,0,1.125,0.023,1.777,0.074c0.656,0.049,1.315,0.117,1.993,0.217l-11.093,37.188
	c-0.627,0.102-1.266,0.164-1.919,0.219c-0.653,0.047-1.244,0.068-1.773,0.068c-0.535,0-1.115-0.021-1.74-0.068
	c-0.63-0.055-1.26-0.117-1.888-0.219l-7.973-28.129l-8.336,28.129c-0.678,0.102-1.343,0.164-1.992,0.219
	c-0.655,0.047-1.249,0.068-1.776,0.068c-0.533,0-1.125-0.021-1.779-0.068c-0.653-0.055-1.245-0.117-1.774-0.219L148.825,171.722z"/>
<path fill="#62BA46" d="M223.132,209.775c-2.898,0-5.435-0.492-7.611-1.479c-2.177-0.992-3.988-2.361-5.441-4.104
	c-1.444-1.736-2.523-3.791-3.221-6.156c-0.704-2.365-1.053-4.932-1.053-7.688c0-2.746,0.349-5.314,1.053-7.682
	c0.698-2.371,1.777-4.426,3.221-6.162c1.453-1.736,3.264-3.115,5.441-4.131c2.177-1.014,4.713-1.521,7.611-1.521
	c2.899,0,5.436,0.51,7.609,1.521c2.177,1.016,3.99,2.395,5.438,4.131c1.453,1.736,2.524,3.791,3.227,6.162
	c0.702,2.365,1.052,4.936,1.052,7.682c0,2.758-0.35,5.322-1.052,7.688c-0.703,2.365-1.774,4.42-3.227,6.156
	c-1.448,1.742-3.261,3.111-5.438,4.104C228.568,209.283,226.031,209.775,223.132,209.775z M223.132,204.054
	c3.336,0,5.8-1.209,7.395-3.627c1.594-2.418,2.391-5.777,2.391-10.08c0-4.295-0.797-7.646-2.391-10.037
	c-1.595-2.396-4.059-3.588-7.395-3.588c-3.333,0-5.786,1.191-7.358,3.588c-1.574,2.391-2.354,5.742-2.354,10.037
	c0,4.303,0.781,7.662,2.354,10.08C217.346,202.845,219.798,204.054,223.132,204.054z"/>
<path fill="#62BA46" d="M249.881,171.722c0.529-0.1,1.041-0.168,1.526-0.217c0.482-0.051,0.987-0.074,1.52-0.074
	c0.531,0,1.063,0.023,1.592,0.074c0.535,0.049,1.017,0.117,1.453,0.217c0.143,0.725,0.289,1.678,0.433,2.861
	c0.146,1.186,0.222,2.186,0.222,3.012c1.014-1.65,2.353-3.074,4.021-4.279c1.668-1.209,3.805-1.811,6.415-1.811
	c0.386,0,0.786,0.014,1.197,0.031c0.413,0.023,0.762,0.062,1.051,0.107c0.099,0.438,0.169,0.898,0.22,1.379
	c0.048,0.479,0.07,0.994,0.07,1.521c0,0.582-0.036,1.186-0.105,1.812c-0.076,0.629-0.16,1.234-0.256,1.812
	c-0.389-0.102-0.788-0.146-1.197-0.146c-0.411,0-0.736,0-0.98,0c-1.307,0-2.548,0.178-3.732,0.545c-1.186,0.355-2.249,1-3.19,1.916
	c-0.942,0.918-1.692,2.178-2.25,3.771c-0.553,1.598-0.828,3.65-0.828,6.162v18.484c-0.536,0.102-1.127,0.164-1.778,0.219
	c-0.654,0.049-1.246,0.068-1.773,0.068c-0.537,0-1.127-0.02-1.778-0.068c-0.655-0.055-1.271-0.117-1.851-0.219v-37.184h-0.002
	V171.722z"/>
<path fill="#62BA46" d="M276.555,155.769c0.535-0.094,1.126-0.162,1.779-0.217c0.65-0.045,1.241-0.072,1.776-0.072
	c0.53,0,1.133,0.027,1.813,0.072c0.675,0.055,1.28,0.123,1.812,0.217v53.141c-0.531,0.102-1.136,0.164-1.812,0.219
	c-0.68,0.047-1.283,0.068-1.813,0.068c-0.535,0-1.126-0.021-1.776-0.068c-0.653-0.055-1.245-0.117-1.779-0.219V155.769z
	 M285.694,189.623l11.816-17.9c0.625-0.1,1.253-0.168,1.885-0.217c0.626-0.051,1.275-0.074,1.955-0.074
	c0.726,0,1.413,0.023,2.069,0.074c0.649,0.049,1.313,0.117,1.99,0.217l-11.815,17.396l13.846,19.789
	c-0.68,0.102-1.327,0.164-1.958,0.219c-0.627,0.047-1.277,0.068-1.959,0.068c-0.674,0-1.35-0.021-2.026-0.068
	c-0.678-0.055-1.354-0.117-2.032-0.219L285.694,189.623z"/>
<path fill="#DBDCDD" d="M583.079,127.685c-8.094,0-14.656,6.559-14.656,14.654c0,0.67,0.045,1.33,0.133,1.977
	c0.48-0.066,0.979-0.107,1.48-0.107c5.311,0,9.619,4.307,9.619,9.621c0,0.928-0.127,1.818-0.375,2.666
	c1.209,0.324,2.484,0.496,3.799,0.496c8.096,0,14.656-6.561,14.656-14.65C597.735,134.244,591.174,127.685,583.079,127.685"/>
<path fill="#DBDCDD" d="M568.555,144.316c-4.613,0.713-8.145,4.699-8.145,9.514c0,5.316,4.305,9.621,9.625,9.621
	c4.385,0,8.088-2.938,9.244-6.955C573.647,154.988,569.35,150.208,568.555,144.316"/>
<path fill="#C1C3C5" d="M570.036,144.207c-0.504,0-1,0.041-1.48,0.107c0.795,5.895,5.092,10.672,10.727,12.18
	c0.248-0.848,0.375-1.738,0.375-2.666C579.657,148.513,575.346,144.207,570.036,144.207"/>
<path fill="#DBDCDD" d="M596.11,7.832c-25.893,0-46.879,20.989-46.879,46.877c0,25.887,20.986,46.876,46.879,46.876
	c18.922,0,35.225-11.212,42.629-27.354c-12.033-0.688-21.576-10.668-21.576-22.875c0-11.011,7.764-20.205,18.113-22.405
	c-0.01-0.014-0.02-0.027-0.021-0.042c-1.107,0.265-2.256,0.405-3.436,0.405c-8.1,0-14.656-6.565-14.656-14.658
	c0-0.605,0.035-1.2,0.104-1.787C610.915,9.648,603.719,7.832,596.11,7.832"/>
<path fill="#62BA46" d="M595.42,96.387c-3.225-16.205-17.51-28.425-34.666-28.425c-19.525,0-35.354,15.832-35.354,35.353
	c0,19.527,15.828,35.357,35.354,35.357c9.652,0,18.389-3.879,24.77-10.146c-1.553-3.248-2.443-6.859-2.443-10.693
	C583.079,108.677,588.051,100.698,595.42,96.387z"/>
<path fill="#8BC53F" d="M607.926,92.983c-4.568,0-8.83,1.253-12.506,3.403c0.445,2.243,0.688,4.556,0.688,6.928
	c0,9.873-4.057,18.794-10.586,25.21c4,8.357,12.52,14.148,22.402,14.148c13.727,0,24.84-11.121,24.84-24.842
	C632.766,104.108,621.653,92.983,607.926,92.983z"/>
<path fill="#00A750" d="M596.11,103.314c0-2.372-0.242-4.685-0.689-6.928c-7.369,4.312-12.342,12.291-12.342,21.447
	c0,3.832,0.895,7.447,2.443,10.693C592.051,122.109,596.11,113.187,596.11,103.314z"/>
<path fill="#DBDCDD" d="M631.819,0c-7.488,0-13.674,5.618-14.555,12.868c7.307,3.699,13.504,9.251,17.988,16.039
	c6.434-1.545,11.221-7.344,11.221-14.252C646.475,6.562,639.911,0,631.819,0"/>
<path fill="#C1C3C5" d="M617.266,12.869c-0.068,0.586-0.104,1.182-0.104,1.787c0,8.093,6.559,14.658,14.656,14.658
	c1.18,0,2.326-0.141,3.434-0.405C630.768,22.12,624.571,16.567,617.266,12.869"/>
<path fill="#DBDCDD" d="M640.065,28.45c-1.639,0-3.238,0.173-4.789,0.5c4.875,7.392,7.709,16.244,7.709,25.759
	c0,6.965-1.518,13.578-4.246,19.521c0.439,0.025,0.883,0.039,1.326,0.039c12.66,0,22.916-10.257,22.916-22.914
	C662.983,38.706,652.725,28.45,640.065,28.45"/>
<path fill="#C1C3C5" d="M635.276,28.95c-10.352,2.2-18.113,11.395-18.113,22.405c0,12.207,9.543,22.188,21.576,22.875
	c2.729-5.942,4.246-12.556,4.246-19.521C642.985,45.194,640.151,36.342,635.276,28.95"/>
</svg>
